# xmcd
#
# Track frame offsets:
#	150
#	17182
#	40230
#	65640
#
# Disc length: 1193 seconds
#
# Revision: 2
# Processed by: cddbd v1.5.2PL0 Copyright (c) Steve Scherf et al.
# Submitted via: EZCDAudioConverter 1.0.8.1
#
DISCID=3104a704
DTITLE=Jade - CD Single
DYEAR=1994
DGENRE=Blues
TTITLE0=Everyday Of The Week (Radio Edit)
TTITLE1=Everyday Of The Week (Puffy and Chucky's Special Remix)
TTITLE2=Everyday Of The Week (2B3-Boogie Bunch Remix)
TTITLE3=5-4-3-2-1 (Yo' Time Is Up)
EXTD=
EXTT0=
EXTT1=
EXTT2=
EXTT3=
PLAYORDER=
